<svg xmlns="http://www.w3.org/2000/svg" viewBox="0 0 450 120" width="100%" height="100%">
  <defs>
    <filter id="combo-white-neon" x="-20%" y="-20%" width="140%" height="140%">
      <feGaussianBlur stdDeviation="5" result="blur" />
      <feMerge>
        <feMergeNode in="blur" />
        <feMergeNode in="SourceGraphic" />
      </feMerge>
    </filter>
  </defs>

  <g transform="translate(10, 10) scale(0.2)">
    <g filter="url(#combo-white-neon)">
      <path d="M 105,205 A 190,55 0 0,1 395,295" fill="none" stroke="#ffffff" stroke-width="4" stroke-dasharray="8 4 2 4" transform="rotate(-28 250 250)" opacity="0.4"/>
      <path d="M 135,225 A 150,40 0 0,1 365,275" fill="none" stroke="#ffffff" stroke-width="2" opacity="0.25" transform="rotate(35 250 250)" stroke-dasharray="4 4"/>
    </g>
    <circle cx="250" cy="250" r="90" fill="none" stroke="#ffffff" stroke-width="32" stroke-linecap="round" />
    <path d="M 395,295 A 190,55 0 0,1 105,205" fill="none" stroke="#ffffff" stroke-width="5" stroke-linecap="round" transform="rotate(-28 250 250)" filter="url(#combo-white-neon)" />
    <path d="M 365,275 A 150,40 0 0,1 135,225" fill="none" stroke="#ffffff" stroke-width="2.5" stroke-linecap="round" transform="rotate(35 250 250)" filter="url(#combo-white-neon)" opacity="0.8" />
    <g filter="url(#combo-white-neon)">
      <circle cx="120" cy="180" r="5" fill="#ffffff" />
      <circle cx="380" cy="320" r="4" fill="#ffffff" opacity="0.7" />
      <circle cx="290" cy="140" r="6" fill="#ffffff" />
      <circle cx="190" cy="370" r="5" fill="#ffffff" opacity="0.6" />
      <circle cx="310" cy="360" r="4.5" fill="#ffffff" opacity="0.5" />
    </g>
  </g>

  <g transform="translate(130, 74)">
    <text font-family="system-ui, -apple-system, BlinkMacSystemFont, 'Segoe UI', Roboto, sans-serif" font-size="44" font-weight="800" fill="#ffffff" letter-spacing="-1px">Oort</text>
    <text x="100" font-family="system-ui, -apple-system, BlinkMacSystemFont, 'Segoe UI', Roboto, sans-serif" font-size="44" font-weight="400" fill="#ffffff" opacity="0.4" letter-spacing="0.5px">API</text>
  </g>
</svg>
